# xmcd
# 
# Track frame offsets:
#     150
#     19077
#     37210
#     53573
# 
# Disc length: 930
# 
# Revision: 0
# Processed by: cddbd v1.5.2PL0 Copyright (c) Steve Scherf et al.
# Submitted via: fre:ac v1.0.17
# 
DISCID=2c03a004
DTITLE=serial TV drama - 愛が止まらない -Turn It Into Love-
DYEAR=0
DGENRE=
TTITLE0=愛が止まらない -Turn It Into Love-
TTITLE1=シティーボーイの憂鬱
TTITLE2=i LOVE, TOKYO!!
TTITLE3=i LOVE, YOUR FAVORITE!!
EXTD=
EXTT0=
EXTT1=
EXTT2=
EXTT3=
PLAYORDER=
